HIERARCHY
ROOT Hips
{
  OFFSET 0 89.5177 0.535
  CHANNELS 6 Xposition Yposition Zposition Zrotation Xrotation Yrotation
  JOINT Spine
  {
    OFFSET 12.0259 -0.162855 1.69034e-005
    CHANNELS 3 Zrotation Xrotation Yrotation
    JOINT Spine1
    {
      OFFSET 15.3169 -0.0121922 0
      CHANNELS 3 Zrotation Xrotation Yrotation
      JOINT Spine2
      {
        OFFSET 15.3176 -0.0121908 0
        CHANNELS 3 Zrotation Xrotation Yrotation
        JOINT Neck
        {
          OFFSET 19.9142 1.56338 0
          CHANNELS 3 Zrotation Xrotation Yrotation
          JOINT Head
          {
            OFFSET 6.92651 0 0
            CHANNELS 3 Zrotation Xrotation Yrotation
            End Site
            {
              OFFSET 20.7666 0 0
            }
          }
          JOINT LeftShoulder
          {
            OFFSET -6.20654 0.708824 7.28219
            CHANNELS 3 Zrotation Xrotation Yrotation
            JOINT LeftArm
            {
              OFFSET 14.108 0 -1.52588e-005
              CHANNELS 3 Zrotation Xrotation Yrotation
              JOINT LeftForeArm
              {
                OFFSET 28.5802 0 0
                CHANNELS 3 Zrotation Xrotation Yrotation
                JOINT LeftHand
                {
                  OFFSET 27.092 0 0
                  CHANNELS 3 Zrotation Xrotation Yrotation
                  End Site
                  {
                    OFFSET 9.55928 -0.186424 0.145352
                  }
                }
              }
            }
          }
          JOINT RightShoulder
          {
            OFFSET -6.20654 0.708866 -7.28218
            CHANNELS 3 Zrotation Xrotation Yrotation
            JOINT RightArm
            {
              OFFSET 14.108 0 1.52588e-005
              CHANNELS 3 Zrotation Xrotation Yrotation
              JOINT RightForeArm
              {
                OFFSET 28.5802 0 0
                CHANNELS 3 Zrotation Xrotation Yrotation
                JOINT RightHand
                {
                  OFFSET 27.092 0 0
                  CHANNELS 3 Zrotation Xrotation Yrotation
                  End Site
                  {
                    OFFSET 9.55929 -0.186417 -0.145354
                  }
                }
              }
            }
          }
        }
      }
    }
  }
  JOINT LeftUpLeg
  {
    OFFSET 0.005 -0.535 8.837
    CHANNELS 3 Zrotation Xrotation Yrotation
    JOINT LeftLeg
    {
      OFFSET 39.9035 0 0
      CHANNELS 3 Zrotation Xrotation Yrotation
      JOINT LeftFoot
      {
        OFFSET 39.6689 0 0
        CHANNELS 3 Zrotation Xrotation Yrotation
        JOINT LeftToe
        {
          OFFSET 10.1624 13.6296 0
          CHANNELS 3 Zrotation Xrotation Yrotation
          End Site
          {
            OFFSET 8.38147 0 0
          }
        }
      }
    }
  }
  JOINT RightUpLeg
  {
    OFFSET 0.005 -0.535 -8.837
    CHANNELS 3 Zrotation Xrotation Yrotation
    JOINT RightLeg
    {
      OFFSET 39.9035 0 0
      CHANNELS 3 Zrotation Xrotation Yrotation
      JOINT RightFoot
      {
        OFFSET 39.6689 0 0
        CHANNELS 3 Zrotation Xrotation Yrotation
        JOINT RightToe
        {
          OFFSET 10.1624 13.6296 0
          CHANNELS 3 Zrotation Xrotation Yrotation
          End Site
          {
            OFFSET 8.38147 0 0
          }
        }
      }
    }
  }
}
MOTION
Frames:	15
Frame Time:	0.0333333
240.11 89.8119 -10.2619 45.1815 -83.3094 -40.3789 1.96793 -1.52085 -1.00283 3.91105 -3.07454 -1.95372 3.91105 -3.07454 -1.95373 -8.30748e-012 -9.0191e-006 -5.27751e-005 4.79355 -3.87338 1.83274 -178.036 -13.9603 -81.9082 11.0382 -47.2547 28.19 -18.7457 -1.27222e-014 -0 -66.5561 -33.6441 -58.224 179.6 11.9818 91.9252 40.2823 61.3771 -56.4771 -8.35339 0 -1.2921e-015 -56.281 26.0432 47.5768 4.79441 2.94969 173.737 -12.8526 1.59028e-015 9.93923e-016 11.3609 6.63439 -14.5683 90 -4.35773e-015 -0 2.8414 0.903463 -178.097 -16.3279 1.59028e-015 7.95139e-016 16.7354 -5.20349 3.95576 90 1.46604e-015 1.59028e-015 
240.091 89.8116 -10.2598 45.3792 -83.2721 -40.1773 1.96739 -1.53298 -0.991516 3.91008 -3.09841 -1.93069 3.91008 -3.09841 -1.9307 -8.30828e-012 -9.0191e-006 -5.27751e-005 4.84271 -3.84634 1.81471 -178.033 -13.9709 -81.9054 11.0193 -47.1959 28.1773 -18.763 -6.36111e-015 1.59028e-015 -66.6729 -33.5685 -58.3247 179.609 12.0129 91.88 39.9691 61.39 -56.1916 -8.35698 0 2.98177e-016 -56.2708 26.097 47.6291 4.79039 2.93223 173.733 -12.8785 0 3.97569e-016 11.418 6.66198 -14.631 90 -5.3734e-016 1.98785e-016 2.84951 0.868654 -178.112 -16.3316 0 5.96354e-016 16.7415 -5.20047 3.94857 90 -9.19379e-016 1.59028e-015 
240.066 89.8128 -10.2572 45.3707 -83.2117 -40.1619 1.96678 -1.54079 -0.984194 3.90896 -3.11376 -1.9158 3.90896 -3.11376 -1.91581 -8.30828e-012 -9.0191e-006 -5.27751e-005 4.93665 -3.86587 1.83484 -178.038 -13.9529 -81.9128 11.044 -47.1273 28.208 -18.7807 -3.18055e-015 -5.56597e-015 -66.5865 -33.7146 -58.3357 179.611 12.0058 91.8693 39.827 61.3542 -55.9776 -8.33978 6.36111e-015 7.95139e-016 -56.3452 25.9919 47.6085 4.85391 2.81503 173.677 -12.7998 1.59028e-015 9.93923e-016 11.3343 6.60586 -14.5037 90 2.11209e-016 -1.98785e-016 2.89773 0.841998 -178.149 -16.3318 -1.59028e-015 1.39149e-015 16.743 -5.19016 3.93058 90 5.96354e-016 -0 
240.042 89.8138 -10.2463 45.5164 -83.1687 -40.0159 1.96112 -1.54746 -0.970728 3.89792 -3.12656 -1.8888 3.89792 -3.12656 -1.88881 -8.30589e-012 -9.0191e-006 -5.27751e-005 5.01622 -3.84762 1.82849 -178.034 -13.9529 -81.8964 11.0677 -47.0957 28.2636 -18.7902 3.18055e-015 -0 -66.6475 -33.6712 -58.3846 179.606 12.0091 91.8929 39.9401 61.3596 -56.0338 -8.32433 3.18055e-015 5.96354e-016 -56.1097 26.1796 47.5222 4.82199 2.8085 173.67 -12.8786 -1.59028e-015 1.19271e-015 11.3622 6.61835 -14.5321 90 1.85118e-015 -0 2.92087 0.83508 -178.161 -16.3127 -1.59028e-015 -1.98785e-016 16.7248 -5.17164 3.91522 90 -1.04362e-015 4.77083e-015 
240.019 89.8148 -10.2312 45.435 -83.1565 -40.1051 1.95448 -1.54494 -0.95712 3.88502 -3.12095 -1.86184 3.88502 -3.12095 -1.86185 -8.30828e-012 -9.0191e-006 -5.27751e-005 5.09987 -3.84937 1.81207 -178.034 -13.9336 -81.8881 11.143 -47.1068 28.3352 -18.7533 6.36111e-015 -4.77083e-015 -66.7826 -33.5379 -58.4814 179.602 12.0133 91.9103 39.9271 61.3063 -55.9355 -8.2943 -3.18055e-015 2.98177e-016 -56.0494 26.179 47.4922 4.8142 2.80515 173.662 -12.9037 -3.18055e-015 -7.95139e-016 11.3692 6.6166 -14.5282 90 -2.60594e-015 7.95139e-016 2.93519 0.842982 -178.166 -16.2949 -7.95139e-016 -1.19271e-015 16.7156 -5.14909 3.88424 90 -9.44227e-016 1.59028e-015 
239.997 89.8159 -10.2142 45.1401 -83.1629 -40.4048 1.95138 -1.53989 -0.947043 3.87918 -3.11046 -1.84193 3.87918 -3.11046 -1.84194 -8.30748e-012 -9.0191e-006 -5.27751e-005 5.16075 -3.83645 1.86052 -178.023 -13.9903 -81.8718 11.1517 -47.1364 28.3782 -18.6826 9.54166e-015 -7.95139e-016 -66.6969 -33.591 -58.3864 179.616 12.0171 91.8425 39.7152 61.3087 -55.6533 -8.23895 -3.18055e-015 -4.96962e-016 -55.8918 26.2681 47.4102 4.82709 2.81798 173.652 -12.9046 -4.77083e-015 -7.95139e-016 11.3587 6.61683 -14.5287 90 -2.91965e-016 -0 2.94361 0.884409 -178.175 -16.2985 1.59028e-015 9.93923e-016 16.7097 -5.14334 3.87006 90 -1.44119e-015 -0 
239.975 89.8171 -10.1927 44.7439 -83.1819 -40.8016 1.94527 -1.53275 -0.935734 3.87229 -3.09575 -1.81964 3.87229 -3.09575 -1.81965 -8.30828e-012 -9.0191e-006 -5.27751e-005 5.19782 -3.82399 1.87461 -178.023 -13.9711 -81.8636 11.2296 -47.1389 28.3796 -18.5874 -6.36111e-015 3.97569e-015 -66.6382 -33.647 -58.361 179.618 12.0125 91.8329 39.8069 61.3391 -55.6799 -8.26303 3.18055e-015 -3.97569e-016 -55.9342 26.3377 47.5031 4.84323 2.88768 173.64 -12.9065 0 -1.19271e-015 11.3357 6.63446 -14.5686 90 -1.20513e-015 -1.98785e-016 2.95007 0.932469 -178.185 -16.2934 -2.38542e-015 5.96354e-016 16.6838 -5.12942 3.84017 90 -2.98177e-016 1.59028e-015 
239.954 89.8183 -10.1649 44.5412 -83.1971 -41.0094 1.94147 -1.52719 -0.924903 3.86012 -3.08418 -1.79833 3.86012 -3.08418 -1.79834 -8.30748e-012 -9.0191e-006 -5.27751e-005 5.21878 -3.84847 1.8994 -178.034 -13.9243 -81.8802 11.2735 -47.0897 28.3017 -18.4533 6.36111e-015 -4.77083e-015 -66.7043 -33.5158 -58.3451 179.619 11.9971 91.8319 39.8302 61.2836 -55.6163 -8.31903 -3.18055e-015 -3.97569e-016 -55.9739 26.3314 47.5044 4.82996 2.91313 173.629 -12.9179 1.59028e-015 3.97569e-016 11.3419 6.61669 -14.5284 90 -5.8393e-016 -0 2.9162 0.937662 -178.198 -16.3405 0 -3.97569e-016 16.7066 -5.15192 3.85581 90 -1.54058e-015 -3.18055e-015 
239.941 89.8199 -10.1452 44.2912 -83.1844 -41.2619 1.94423 -1.52641 -0.917015 3.86592 -3.08049 -1.78253 3.86592 -3.08049 -1.78254 -8.30669e-012 -9.0191e-006 -5.27751e-005 5.18594 -3.87117 1.94152 -178.047 -13.9084 -81.926 11.379 -47.1231 28.3125 -18.4254 6.36111e-015 -0 -66.6314 -33.7096 -58.3976 179.62 11.9777 91.8315 39.8458 61.2648 -55.5408 -8.31554 9.54166e-015 -0 -55.8499 26.3611 47.4313 4.84085 2.93215 173.624 -12.9342 1.59028e-015 9.93923e-016 11.3528 6.63329 -14.566 90 -3.31101e-015 3.97569e-016 2.92903 0.952993 -178.204 -16.347 2.38542e-015 -9.93923e-016 16.6976 -5.15059 3.84877 90 -4.5472e-015 -0 
239.929 89.8215 -10.1213 44.2406 -83.1502 -41.3037 1.94913 -1.5263 -0.911382 3.87583 -3.08206 -1.7711 3.87582 -3.08206 -1.77111 -8.30669e-012 -9.0191e-006 -5.27751e-005 5.10364 -3.91377 2.0017 -178.056 -13.8763 -81.9453 11.423 -47.189 28.2524 -18.3636 9.54166e-015 -5.56597e-015 -66.7114 -33.5 -58.3286 179.623 11.9858 91.8172 39.9375 61.3103 -55.5615 -8.35093 -3.18055e-015 -1.98785e-016 -56.024 26.3621 47.6211 4.84805 2.93512 173.611 -12.9434 1.59028e-015 1.98785e-016 11.3238 6.64586 -14.5944 90 -4.9075e-016 -1.98785e-016 2.92905 0.930003 -178.222 -16.3759 -2.38542e-015 7.95139e-016 16.7108 -5.15586 3.84513 90 -6.4605e-016 1.59028e-015 
239.919 89.8234 -10.0988 44.333 -83.0836 -41.2039 1.95532 -1.53347 -0.907111 3.88824 -3.09636 -1.76215 3.88824 -3.09636 -1.76216 -8.30748e-012 -9.0191e-006 -5.27751e-005 5.05269 -3.96704 2.048 -178.066 -13.8565 -81.9736 11.3545 -47.1618 28.118 -18.3998 3.18055e-015 3.18055e-015 -66.6764 -33.6675 -58.4279 179.62 11.9953 91.8283 39.9985 61.3268 -55.5485 -8.32255 0 3.97569e-016 -55.825 26.3946 47.4434 4.86426 2.88337 173.601 -12.9403 -1.59028e-015 -7.95139e-016 11.3303 6.64683 -14.5967 90 -2.89791e-015 -0 2.94471 0.849711 -178.238 -16.4028 1.59028e-015 -0 16.723 -5.17167 3.86791 90 2.06239e-015 -0 
239.909 89.8252 -10.0749 44.6014 -82.9998 -40.9232 1.96018 -1.54367 -0.904468 3.8979 -3.11672 -1.75647 3.89789 -3.11672 -1.75648 -8.30828e-012 -9.0191e-006 -5.27751e-005 5.05158 -4.01626 2.06401 -178.076 -13.8306 -82.0028 11.2781 -47.1429 28.0025 -18.4204 3.18055e-015 4.77083e-015 -66.5754 -33.6999 -58.3175 179.621 11.9786 91.8267 40.0935 61.3524 -55.547 -8.3182 -3.18055e-015 -1.78906e-015 -55.9417 26.3468 47.5297 4.86234 2.80731 173.586 -12.9577 3.18055e-015 7.95139e-016 11.3033 6.63225 -14.5636 90 2.97556e-015 1.98785e-016 2.97113 0.787932 -178.251 -16.3936 1.59028e-015 -5.96354e-016 16.7123 -5.15615 3.83884 90 -4.96962e-016 -0 
239.908 89.8268 -10.0506 44.979 -82.936 -40.5384 1.96488 -1.55156 -0.902364 3.90727 -3.13249 -1.75179 3.90727 -3.13249 -1.7518 -8.30748e-012 -9.0191e-006 -5.27751e-005 5.0085 -4.01964 2.07738 -178.085 -13.826 -82.0363 11.1976 -47.1323 27.9401 -18.4833 3.18055e-015 -4.77083e-015 -66.7713 -33.5224 -58.4361 179.627 12.0061 91.7913 40.0037 61.3796 -55.4488 -8.33822 3.18055e-015 9.93923e-016 -56.1338 26.3478 47.7215 4.84195 2.7363 173.592 -12.9706 0 1.19271e-015 11.3277 6.66979 -14.6488 90 2.05618e-015 -0 3.01039 0.797659 -178.241 -16.3016 0 -3.97569e-016 16.6157 -5.08324 3.75868 90 1.56543e-015 1.59028e-015 
239.908 89.8284 -10.0198 45.0309 -82.8916 -40.4826 1.96997 -1.5578 -0.900464 3.9174 -3.14498 -1.74806 3.9174 -3.14498 -1.74807 -8.30828e-012 -9.0191e-006 -5.27751e-005 4.98429 -4.01531 2.08861 -178.091 -13.7988 -82.0443 11.0819 -46.9986 27.8017 -18.5511 0 -0 -66.5727 -33.7358 -58.33 179.635 12.0166 91.7534 39.8247 61.3982 -55.3167 -8.33327 3.18055e-015 -2.78299e-015 -55.9182 26.4066 47.5667 4.83356 2.74132 173.586 -12.9836 -1.59028e-015 -7.95139e-016 11.308 6.66593 -14.64 90 -2.29845e-016 1.98785e-016 2.9996 0.760373 -178.253 -16.342 -1.59028e-015 -3.97569e-016 16.6306 -5.10059 3.77611 90 -2.21148e-015 -3.18055e-015 
239.908 89.8293 -9.98987 44.9876 -82.8559 -40.5225 1.97012 -1.56316 -0.898655 3.91752 -3.15572 -1.74828 3.91752 -3.15572 -1.74828 -8.30828e-012 -9.0191e-006 -5.27751e-005 5.04911 -4.05628 2.0639 -178.094 -13.7544 -82.0309 10.938 -46.8532 27.6354 -18.5343 6.36111e-015 -2.38542e-015 -66.5109 -33.8011 -58.3084 179.636 12.0046 91.7491 39.8006 61.4043 -55.3793 -8.30418 3.18055e-015 -3.97569e-016 -56.0101 26.3919 47.6644 4.82583 2.71531 173.577 -13.0064 -1.59028e-015 -1.98785e-016 11.2867 6.65858 -14.6233 90 2.04065e-015 3.97569e-016 2.99717 0.721545 -178.258 -16.3515 7.95139e-016 1.98785e-016 16.6042 -5.10592 3.78016 90 4.09993e-015 -0 
